<svg xmlns="http://www.w3.org/2000/svg" viewBox="0 0 446.82 449.45"><defs><style>.cls-1{fill:#333f48;}</style></defs><g id="Capa_2" data-name="Capa 2"><g id="LOGO-V"><path class="cls-1" d="M438,183.64a205.68,205.68,0,0,0-77.5-108.28,82.53,82.53,0,0,0-152.6-35.9h0a209.34,209.34,0,0,0-52.71,15.88l-.1,0a82.71,82.71,0,0,0-52-6l-1.13.25-1.21.28c-1.63.39-3.24.83-4.86,1.33-1.32.41-2.63.85-3.94,1.32l-1.1.41c-.35.14-.71.27-1.06.42-.69.27-1.36.54-2,.83l-1,.42a82.59,82.59,0,0,0-39,114.88l-.06.16a205.94,205.94,0,0,0-12.58,53.43A82.52,82.52,0,0,0,80.39,373.23,206.41,206.41,0,0,0,300,440.63a207.79,207.79,0,0,0,39.07-16.27q-6.55,3.6-13.38,6.7c24-3,55.64-1.62,79.84-8.91a34.32,34.32,0,0,0,23.48-25c5.77-24.48,2.45-55.8,4-79.88h0A205.36,205.36,0,0,0,438,183.64Zm-161.78,178a123.68,123.68,0,0,1-120.48-28.31c-.55-.51-1.09-1-1.63-1.56A123.92,123.92,0,0,1,119.53,217c.31-1.46.66-2.91,1-4.35a.06.06,0,0,1,0,0,123.67,123.67,0,0,1,82-87.26l.12,0,2.16-.68c.72-.22,1.45-.42,2.17-.63a123.66,123.66,0,0,1,116.65,27.42c.56.5,1.11,1,1.66,1.53a123.78,123.78,0,0,1-49.08,208.66Z"/><path class="cls-1" d="M297,183a83,83,0,0,0-36.88-20h-.08l-.68-.16-.44-.1-.19,0a82.57,82.57,0,0,0-77.62,23.16l0,0s0,0,0,0L181,186l0,0,0,0h0l-.54.58-.62.65h0A82.49,82.49,0,1,0,297,183Z"/></g></g></svg>